<svg width="105" height="26" viewBox="0 0 105 26" fill="none" xmlns="http://www.w3.org/2000/svg">
<path d="M0.413668 18.3589C0.0131032 17.6864 0.289729 16.815 1.00482 16.4968L7.33829 13.6778C7.72112 13.5074 8.16244 13.531 8.52492 13.7412L12.144 15.8401C12.5045 16.0492 12.7437 16.4178 12.7877 16.8322L13.5266 23.7916C13.609 24.5676 12.9971 25.2423 12.2168 25.2359L9.28912 25.2118C8.50123 25.2053 7.89833 24.5081 8.00562 23.7275L8.59107 19.4685C8.63909 19.1191 8.47062 18.7755 8.16502 18.5995C7.85901 18.4233 7.47669 18.4504 7.19858 18.668L3.86441 21.2766C3.24456 21.7615 2.33979 21.5924 1.93703 20.9162L0.413668 18.3589Z" fill="white"/>
<path fill-rule="evenodd" clip-rule="evenodd" d="M14.1674 15.6496L19.7642 19.7665C20.0811 19.9996 20.5307 19.9018 20.722 19.5581L22.1724 16.9526C22.3634 16.6095 22.2106 16.1766 21.8466 16.0294L17.8811 14.4251C17.3068 14.1928 16.9309 13.6353 16.9309 13.0158C16.9309 12.4002 17.3021 11.8453 17.8712 11.6105L21.8505 9.96777C22.2127 9.81824 22.3627 9.38563 22.1707 9.04399L20.7255 6.47219C20.5333 6.13015 20.0851 6.03353 19.769 6.266L14.1674 10.3864C14.0001 10.5094 13.9013 10.7048 13.9013 10.9125V15.1234C13.9013 15.3312 14.0001 15.5265 14.1674 15.6496ZM13.7804 16.1758C13.4457 15.9296 13.248 15.5389 13.248 15.1234V10.9125C13.248 10.4971 13.4457 10.1064 13.7804 9.86017L19.382 5.73982C20.0141 5.27486 20.9106 5.46812 21.295 6.1522L22.7402 8.724C23.1241 9.40727 22.8242 10.2725 22.0998 10.5716L18.1204 12.2142C17.7959 12.3482 17.5841 12.6647 17.5841 13.0158C17.5841 13.3691 17.7985 13.6871 18.1261 13.8196L22.0916 15.4238C22.8196 15.7184 23.1251 16.5841 22.7431 17.2703L21.2927 19.8758C20.9101 20.5632 20.011 20.7589 19.3772 20.2927L13.7804 16.1758Z" fill="#2DEBFC"/>
<path d="M12.1441 10.1478C12.5047 9.93872 12.7438 9.57012 12.7878 9.15565L13.5255 2.20842C13.6083 1.42808 12.9894 0.751295 12.2048 0.764252L9.27676 0.812604C8.4933 0.825542 7.89739 1.52047 8.00409 2.29674L8.59101 6.56652C8.63916 6.9168 8.4702 7.26131 8.16376 7.43769C7.85833 7.61349 7.47695 7.58734 7.19838 7.37149L3.81845 4.75265C3.19711 4.27122 2.29439 4.44352 1.89404 5.11995L0.408119 7.6306C0.0102085 8.30291 0.287421 9.17185 1.00116 9.48952L7.33845 12.3101C7.72127 12.4805 8.16258 12.4569 8.52506 12.2467L12.1441 10.1478Z" fill="#2C85FC"/>
<path d="M43.0725 11.9063V20.4087H46.236V9.57329H41.6289V11.9063H43.0725Z" fill="white"/>
<path d="M42.9735 8.05083C43.2635 8.35395 43.705 8.50553 44.2982 8.50553C44.8916 8.50553 45.3263 8.35395 45.6029 8.05083C45.8933 7.73436 46.038 7.33891 46.038 6.86449C46.038 6.37671 45.8933 5.98122 45.6029 5.67814C45.3263 5.36179 44.8916 5.20355 44.2982 5.20355C43.705 5.20355 43.2635 5.36179 42.9735 5.67814C42.6968 5.98122 42.5583 6.37671 42.5583 6.86449C42.5583 7.33891 42.6968 7.73436 42.9735 8.05083Z" fill="white"/>
<path d="M67.6697 20.358C67.9598 20.6612 68.4013 20.8127 68.9944 20.8127C69.5879 20.8127 70.0226 20.6612 70.2992 20.358C70.5896 20.0416 70.7343 19.6461 70.7343 19.1717C70.7343 18.6839 70.5896 18.2884 70.2992 17.9853C70.0226 17.669 69.5879 17.5108 68.9944 17.5108C68.4013 17.5108 67.9598 17.669 67.6697 17.9853C67.3931 18.2884 67.2546 18.6839 67.2546 19.1717C67.2546 19.6461 67.3931 20.0416 67.6697 20.358Z" fill="white"/>
<path d="M32.0593 20.1712C32.9555 20.5798 34.0562 20.7842 35.3609 20.7842C36.587 20.7842 37.6413 20.5932 38.5247 20.2107C39.4079 19.8286 40.0865 19.2946 40.5611 18.6094C41.049 17.9105 41.2927 17.0998 41.2927 16.1771C41.2927 15.2809 41.0624 14.5229 40.6009 13.9033C40.1525 13.2706 39.5267 12.7763 38.7223 12.4205C37.9182 12.0513 36.9891 11.8206 35.9345 11.7285L34.8273 11.6296C34.1682 11.5767 33.6936 11.3989 33.4036 11.0956C33.1136 10.7925 32.9686 10.4366 32.9686 10.0281C32.9686 9.71154 33.0479 9.42165 33.2057 9.15802C33.3641 8.88116 33.6012 8.66371 33.9177 8.50547C34.2472 8.34736 34.6493 8.26826 35.1238 8.26826C35.6245 8.26826 36.0399 8.36042 36.3695 8.54509C36.442 8.58411 36.5109 8.62582 36.5756 8.67008L36.5912 8.68105C36.6154 8.69777 36.6393 8.71512 36.6624 8.73262C36.8627 8.88563 37.022 9.06696 37.1406 9.27661C37.3117 9.5667 37.398 9.88954 37.398 10.2455H40.5611C40.5611 9.29637 40.3436 8.47252 39.9089 7.77395C39.4738 7.06215 38.8477 6.51513 38.0306 6.13274C37.2262 5.73729 36.2575 5.53957 35.1238 5.53957C34.0428 5.53957 33.1071 5.72423 32.316 6.09326C31.5253 6.44922 30.9058 6.96329 30.4577 7.63544C30.0223 8.30775 29.8048 9.10534 29.8048 10.0281C29.8048 11.3066 30.2336 12.3347 31.0903 13.1125C31.947 13.8903 33.094 14.3384 34.5307 14.457L35.6183 14.5559C36.5011 14.635 37.1406 14.813 37.5361 15.0897C37.9313 15.3533 38.1292 15.7158 38.1292 16.1771C38.1292 16.3892 38.0946 16.588 38.025 16.7738C37.9734 16.9117 37.9029 17.0423 37.8131 17.1658C37.6018 17.4428 37.2921 17.66 36.8836 17.8184C36.475 17.9764 35.9674 18.0555 35.3609 18.0555C34.6888 18.0555 34.1417 17.9634 33.7201 17.7788C33.2981 17.5809 32.982 17.3239 32.7707 17.0077C32.5731 16.6912 32.4744 16.3486 32.4744 15.9794H29.3306C29.3306 16.9153 29.5612 17.7458 30.0223 18.4709C30.4838 19.1826 31.1628 19.7496 32.0593 20.1712Z" fill="white"/>
<path d="M74.8826 20.1712C75.7788 20.5798 76.8794 20.7842 78.1842 20.7842C79.4102 20.7842 80.4645 20.5932 81.348 20.2107C82.2311 19.8286 82.9098 19.2946 83.3843 18.6094C83.8723 17.9105 84.1159 17.0998 84.1159 16.1771C84.1159 15.2809 83.8857 14.5229 83.4242 13.9033C82.9758 13.2706 82.35 12.7763 81.5456 12.4205C80.7415 12.0513 79.8123 11.8206 78.7577 11.7285L77.6505 11.6296C76.9914 11.5767 76.5169 11.3989 76.2269 11.0956C75.9368 10.7925 75.7918 10.4366 75.7918 10.0281C75.7918 9.71154 75.8712 9.42165 76.0289 9.15802C76.1873 8.88116 76.4245 8.66371 76.7409 8.50547C77.0705 8.34736 77.4725 8.26826 77.9471 8.26826C78.4478 8.26826 78.8632 8.36042 79.1927 8.54509C79.2652 8.58411 79.3341 8.62582 79.3988 8.67008L79.4145 8.68105C79.4387 8.69777 79.4625 8.71512 79.4857 8.73262C79.6859 8.88563 79.8453 9.06696 79.9638 9.27661C80.135 9.5667 80.2212 9.88954 80.2212 10.2455H83.3843C83.3843 9.29637 83.1668 8.47252 82.7321 7.77395C82.2971 7.06215 81.671 6.51513 80.8538 6.13274C80.0494 5.73729 79.0807 5.53957 77.9471 5.53957C76.866 5.53957 75.9303 5.72423 75.1393 6.09326C74.3486 6.44922 73.729 6.96329 73.2809 7.63544C72.8456 8.30775 72.628 9.10534 72.628 10.0281C72.628 11.3066 73.0569 12.3347 73.9135 13.1125C74.7702 13.8903 75.9172 14.3384 77.354 14.457L78.4415 14.5559C79.3243 14.635 79.9638 14.813 80.3594 15.0897C80.7545 15.3533 80.9525 15.7158 80.9525 16.1771C80.9525 16.3892 80.9178 16.588 80.8483 16.7738C80.7967 16.9117 80.7261 17.0423 80.6363 17.1658C80.425 17.4428 80.1154 17.66 79.7068 17.8184C79.2982 17.9764 78.7907 18.0555 78.1842 18.0555C77.512 18.0555 76.965 17.9634 76.5433 17.7788C76.1214 17.5809 75.8052 17.3239 75.5939 17.0077C75.3963 16.6912 75.2977 16.3486 75.2977 15.9794H72.1538C72.1538 16.9153 72.3844 17.7458 72.8456 18.4709C73.307 19.1826 73.986 19.7496 74.8826 20.1712Z" fill="white"/>
<path d="M53.2945 20.5468C52.2003 20.5468 51.3172 20.4152 50.6451 20.1513C49.9726 19.8746 49.4784 19.42 49.162 18.7874C48.8589 18.1414 48.7073 17.2713 48.7073 16.1771V11.8865H47.0662V9.57323H48.7073V6.64694H51.6533V9.57323H54.8171V11.8865H51.6533V16.2959C51.6533 16.81 51.7852 17.2053 52.0488 17.482C52.3254 17.7458 52.7144 17.8775 53.2154 17.8775H54.8171V20.5468H53.2945Z" fill="white"/>
<path d="M102.551 20.5468C101.456 20.5468 100.573 20.4152 99.9012 20.1513C99.2287 19.8746 98.7345 19.42 98.4181 18.7874C98.115 18.1414 97.9634 17.2713 97.9634 16.1771V11.8865H96.3223V9.57323H97.9634V6.64694H100.909V9.57323H104.073V11.8865H100.909V16.2959C100.909 16.81 101.041 17.2053 101.305 17.482C101.582 17.7458 101.971 17.8775 102.472 17.8775H104.073V20.5468H102.551Z" fill="white"/>
<path fill-rule="evenodd" clip-rule="evenodd" d="M58.626 20.3097C59.3377 20.6262 60.1552 20.7843 61.0778 20.7843C61.9871 20.7843 62.7915 20.6262 63.4901 20.3097C64.1887 19.9933 64.7687 19.5517 65.2299 18.985C65.6914 18.4181 66.0013 17.7724 66.1591 17.0473H63.2527C63.121 17.3769 62.8705 17.6535 62.5015 17.8775C62.1324 18.1019 61.6575 18.2139 61.0778 18.2139C60.7186 18.2139 60.3975 18.1715 60.1147 18.0862C59.8994 18.0216 59.7064 17.9324 59.5356 17.8184C59.1401 17.5549 58.8501 17.1855 58.6655 16.7112C58.6143 16.576 58.5705 16.4346 58.5336 16.2874C58.496 16.1382 58.4657 15.983 58.4428 15.8214H66.357V14.7537C66.357 13.765 66.146 12.8555 65.7244 12.0251C65.3024 11.1813 64.6894 10.5025 63.8856 9.98847C63.0946 9.4612 62.119 9.19757 60.9589 9.19757C60.0758 9.19757 59.2848 9.35581 58.5862 9.67215C57.9013 9.97524 57.3278 10.3905 56.8663 10.9177C56.4051 11.445 56.0491 12.0449 55.7983 12.7172C55.5612 13.3761 55.4426 14.0681 55.4426 14.7931V15.1886C55.4426 15.8873 55.5612 16.5727 55.7983 17.2449C56.0491 17.904 56.4051 18.5036 56.8663 19.0442C57.3408 19.5716 57.9271 19.9933 58.626 20.3097ZM58.4973 13.8663C58.5062 13.8244 58.5153 13.7832 58.5254 13.7426C58.5529 13.6308 58.5845 13.5237 58.6205 13.4213C58.6407 13.363 58.6623 13.3062 58.6855 13.251C58.883 12.7632 59.1731 12.3942 59.5552 12.1437C59.6983 12.0501 59.8531 11.974 60.0193 11.9154C60.2989 11.8172 60.6124 11.768 60.9589 11.768C61.4998 11.768 61.9476 11.8933 62.3036 12.1437C62.6726 12.3809 62.9496 12.7302 63.1341 13.1916C63.1491 13.2288 63.1632 13.2667 63.1769 13.3051C63.1988 13.3662 63.219 13.429 63.238 13.4933C63.2657 13.5889 63.2902 13.688 63.3118 13.7903C63.3274 13.8658 63.3408 13.943 63.3529 14.0221H58.467C58.4761 13.9693 58.4862 13.9174 58.4973 13.8663Z" fill="white"/>
<path fill-rule="evenodd" clip-rule="evenodd" d="M88.0747 20.3097C88.7864 20.6262 89.6039 20.7843 90.5265 20.7843C91.4358 20.7843 92.2402 20.6262 92.9388 20.3097C93.6374 19.9933 94.2175 19.5517 94.6786 18.985C95.1401 18.4181 95.4501 17.7724 95.6078 17.0473H92.7014C92.5698 17.3769 92.3193 17.6535 91.9502 17.8775C91.5811 18.1019 91.1063 18.2139 90.5265 18.2139C90.1673 18.2139 89.8462 18.1715 89.5634 18.0862C89.3482 18.0216 89.1551 17.9324 88.9843 17.8184C88.5888 17.5549 88.2988 17.1855 88.1143 16.7112C88.063 16.576 88.0192 16.4346 87.9823 16.2874C87.9448 16.1382 87.9144 15.983 87.8915 15.8214H95.8057V14.7537C95.8057 13.765 95.5947 12.8555 95.1731 12.0251C94.7511 11.1813 94.1381 10.5025 93.3343 9.98847C92.5433 9.4612 91.5678 9.19757 90.4077 9.19757C89.5245 9.19757 88.7335 9.35581 88.0349 9.67215C87.35 9.97524 86.7765 10.3905 86.315 10.9177C85.8539 11.445 85.4979 12.0449 85.247 12.7172C85.0099 13.3761 84.8914 14.0681 84.8914 14.7931V15.1886C84.8914 15.8873 85.0099 16.5727 85.247 17.2449C85.4979 17.904 85.8539 18.5036 86.315 19.0442C86.7896 19.5716 87.3758 19.9933 88.0747 20.3097ZM87.9461 13.8663C87.9549 13.8244 87.964 13.7832 87.9742 13.7426C88.0016 13.6308 88.0333 13.5237 88.0692 13.4213C88.0894 13.363 88.111 13.3062 88.1342 13.251C88.3318 12.7632 88.6218 12.3942 89.0039 12.1437C89.147 12.0501 89.3018 11.974 89.468 11.9154C89.7476 11.8172 90.0611 11.768 90.4077 11.768C90.9485 11.768 91.3963 11.8933 91.7523 12.1437C92.1213 12.3809 92.3983 12.7302 92.5828 13.1916C92.5979 13.2288 92.6119 13.2667 92.6256 13.3051C92.6475 13.3662 92.6677 13.429 92.6867 13.4933C92.7145 13.5889 92.7389 13.688 92.7605 13.7903C92.7762 13.8658 92.7896 13.943 92.8017 14.0221H87.9157C87.9248 13.9693 87.935 13.9174 87.9461 13.8663Z" fill="white"/>
</svg>
